<?xml version="1.0" encoding="UTF-8"?>
<svg width="12px" height="12px" viewBox="0 0 12 12" version="1.1" xmlns="http://www.w3.org/2000/svg" xmlns:xlink="http://www.w3.org/1999/xlink">
    <title> check-circle-fill 12</title>
    <g id="-check-circle-fill-12" stroke="none" stroke-width="1" fill="none" fill-rule="evenodd">
        <path d="M6,1 C8.76,1 11,3.24 11,6 C11,8.76 8.76,11 6,11 C3.24,11 1,8.76 1,6 C1,3.24 3.24,1 6,1 Z M8.85355339,4.14644661 C8.65829124,3.95118446 8.34170876,3.95118446 8.14644661,4.14644661 L8.14644661,4.14644661 L5,7.293 L3.85355339,6.14644661 L3.7843055,6.08859116 C3.58943736,5.95359511 3.32001296,5.97288026 3.14644661,6.14644661 C2.95118446,6.34170876 2.95118446,6.65829124 3.14644661,6.85355339 L3.14644661,6.85355339 L5,8.70710678 L8.85355339,4.85355339 L8.91140884,4.7843055 C9.04640489,4.58943736 9.02711974,4.32001296 8.85355339,4.14644661 Z" id="Combined-Shape" fill="#23A959"></path>
    </g>
</svg>