<?xml version="1.0" encoding="UTF-8"?>
<svg width="12px" height="12px" viewBox="0 0 12 12" version="1.1" xmlns="http://www.w3.org/2000/svg" xmlns:xlink="http://www.w3.org/1999/xlink">
    <title> check-circle-outlined 12</title>
    <g id="-check-circle-outlined-12" stroke="none" stroke-width="1" fill="none" fill-rule="evenodd">
        <path d="M6,1 C8.76,1 11,3.24 11,6 C11,8.76 8.76,11 6,11 C3.24,11 1,8.76 1,6 C1,3.24 3.24,1 6,1 Z M6,2 C3.79228475,2 2,3.79228475 2,6 C2,8.20771525 3.79228475,10 6,10 C8.20771525,10 10,8.20771525 10,6 C10,3.79228475 8.20771525,2 6,2 Z M8.85355339,4.14644661 C9.02711974,4.32001296 9.04640489,4.58943736 8.91140884,4.7843055 L8.85355339,4.85355339 L5,8.70710678 L3.14644661,6.85355339 C2.95118446,6.65829124 2.95118446,6.34170876 3.14644661,6.14644661 C3.32001296,5.97288026 3.58943736,5.95359511 3.7843055,6.08859116 L3.85355339,6.14644661 L5,7.293 L8.14644661,4.14644661 C8.34170876,3.95118446 8.65829124,3.95118446 8.85355339,4.14644661 Z" id="Combined-Shape" fill="#23A959"></path>
    </g>
</svg>