<?xml version="1.0" encoding="UTF-8"?>
<svg width="20px" height="20px" viewBox="0 0 20 20" version="1.1" xmlns="http://www.w3.org/2000/svg" xmlns:xlink="http://www.w3.org/1999/xlink">
    <title>icon_question-circle</title>
    <g id="icon_question-circle" stroke="none" stroke-width="1" fill="none" fill-rule="evenodd">
        <path d="M10,2 C14.418278,2 18,5.581722 18,10 C18,14.418278 14.418278,18 10,18 C5.581722,18 2,14.418278 2,10 C2,5.581722 5.581722,2 10,2 Z M10.5,14 L9.5,14 L9.5,15 L10.5,15 L10.5,14 Z M10.0757576,4.5 C8.38782306,4.5 7.3456884,5.62582526 7.00654039,7.70200095 L7.00654039,7.70200095 L7.99345961,7.86321645 L8.03239185,7.64599376 C8.3227006,6.16445871 8.98724328,5.5 10.0757576,5.5 C11.1892345,5.5 11.9331362,6.33458754 11.9957184,7.60649362 L11.9957184,7.60649362 L12,7.7826087 L11.9930231,7.90578018 C11.9372652,8.40587936 11.5479883,8.99599495 10.8498814,9.71420113 L10.8498814,9.71420113 L10.6530872,9.91104351 L9.89393018,10.6538184 C9.63077865,10.9226791 9.50298412,11.0925056 9.44407979,11.2953414 C9.31906126,11.72584 9.31906126,12.3117331 9.42943142,13.0718476 L9.42943142,13.0718476 L10.4190534,12.9281524 L10.3918778,12.7242114 C10.328354,12.1976527 10.3359591,11.8099159 10.4044051,11.5742238 L10.4044051,11.5742238 L10.6465312,11.3152148 L11.5150233,10.4640092 L11.7601098,10.2079527 C12.5064325,9.40346304 12.9354969,8.69738322 12.9932805,7.95552953 L12.9932805,7.95552953 L13,7.7826087 L12.995873,7.58924077 C12.9190531,5.80149305 11.7758516,4.5 10.0757576,4.5 Z" id="Combined-Shape" fill="#57565F"></path>
    </g>
</svg>