<?xml version="1.0" encoding="UTF-8"?>
<svg width="20px" height="20px" viewBox="0 0 20 20" version="1.1" xmlns="http://www.w3.org/2000/svg" xmlns:xlink="http://www.w3.org/1999/xlink">
    <title>icon_project</title>
    <g id="icon_project" stroke="none" stroke-width="1" fill="none" fill-rule="evenodd">
        <path d="M14,4 C14.5522847,4 15,4.44771525 15,5 L15,15 C15,15.5522847 14.5522847,16 14,16 L6,16 C5.44771525,16 5,15.5522847 5,15 L5,13 L4.5,13 C4.22385763,13 4,12.7761424 4,12.5 L4,11.5 C4,11.2238576 4.22385763,11 4.5,11 L5,11 L5,9 L4.5,9 C4.22385763,9 4,8.77614237 4,8.5 L4,7.5 C4,7.22385763 4.22385763,7 4.5,7 L5,7 L5,5 C5,4.44771525 5.44771525,4 6,4 L14,4 Z M14,5 L6,5 L6,7 L7.5,7 C7.77614237,7 8,7.22385763 8,7.5 L8,8.5 C8,8.77614237 7.77614237,9 7.5,9 L6,9 L6,11 L7.5,11 C7.77614237,11 8,11.2238576 8,11.5 L8,12.5 C8,12.7761424 7.77614237,13 7.5,13 L6,13 L6,15 L14,15 L14,5 Z" id="Combined-Shape" fill="#57565F"></path>
    </g>
</svg>