<?xml version="1.0" encoding="UTF-8"?>
<svg width="20px" height="20px" viewBox="0 0 20 20" version="1.1" xmlns="http://www.w3.org/2000/svg" xmlns:xlink="http://www.w3.org/1999/xlink">
    <title> icon_info-filled</title>
    <g id="-icon_info-filled" stroke="none" stroke-width="1" fill="none" fill-rule="evenodd">
        <rect id="container" x="0" y="0" width="20" height="20"></rect>
        <path d="M10,2 C14.416,2 18,5.584 18,10 C18,14.416 14.416,18 10,18 C5.584,18 2,14.416 2,10 C2,5.584 5.584,2 10,2 Z M10,8.66666667 C9.75454011,8.66666667 9.55039163,8.8553335 9.50805567,9.10413266 L9.5,9.2 L9.5,13.4666667 C9.5,13.7612185 9.72385763,14 10,14 C10.2454599,14 10.4496084,13.8113332 10.4919443,13.562534 L10.5,13.4666667 L10.5,9.2 C10.5,8.90544813 10.2761424,8.66666667 10,8.66666667 Z M10,6 C9.75454011,6 9.55039163,6.18866684 9.50805567,6.43746599 L9.5,6.53333333 L9.5,7.06666667 C9.5,7.36121853 9.72385763,7.6 10,7.6 C10.2454599,7.6 10.4496084,7.41133316 10.4919443,7.16253401 L10.5,7.06666667 L10.5,6.53333333 C10.5,6.23878147 10.2761424,6 10,6 Z" id="Combined-Shape" fill="#57565F"></path>
    </g>
</svg>