<?xml version="1.0" encoding="UTF-8"?>
<svg width="24px" height="24px" viewBox="0 0 24 24" version="1.1" xmlns="http://www.w3.org/2000/svg" xmlns:xlink="http://www.w3.org/1999/xlink">
    <title>icon_dashboardreport </title>
    <g id="icon_dashboardreport-" stroke="none" stroke-width="1" fill="none" fill-rule="evenodd">
        <g id="Group" transform="translate(2.000000, 5.000000)">
            <path d="M20,5 L15,0 L1,0 C0.44771525,1.01453063e-16 -6.76353751e-17,0.44771525 0,1 L0,14 C-9.13419418e-16,14.5522847 0.44771525,15 1,15 L19,15 C19.5522847,15 20,14.5522847 20,14 L20,5 L20,5 Z" id="Combined-Shape" fill="#E1DFE9"></path>
            <g id="Group-2" transform="translate(2.000000, 3.000000)" fill="#A3A1AB">
                <path d="M9.44444444,4.72222222 C9.44444444,7.33023354 7.33023354,9.44444444 4.72222222,9.44444444 C2.1142109,9.44444444 0,7.33023354 0,4.72222222 C0,2.19324155 1.98801833,0.128587438 4.48653571,0.00577918215 L4.72222222,0 L4.72222222,4.72222222 L9.44444444,4.72222222 Z" id="Path"></path>
                <polygon id="Path" points="15.3472222 8.26388889 10.625 8.26388889 10.625 7.08333333 15.3472222 7.08333333"></polygon>
                <polygon id="Path" points="10.625 3.54166667 16.5277778 3.54166667 16.5277778 4.72222222 10.625 4.72222222"></polygon>
            </g>
        </g>
    </g>
</svg>