<?xml version="1.0" encoding="UTF-8"?>
<svg width="20px" height="20px" viewBox="0 0 20 20" version="1.1" xmlns="http://www.w3.org/2000/svg" xmlns:xlink="http://www.w3.org/1999/xlink">
    <title>icon_cross</title>
    <g id="icon_cross" stroke="none" stroke-width="1" fill="none" fill-rule="evenodd">
        <path d="M5.7843055,5.08859116 L5.85355339,5.14644661 L10.5,9.793 L15.1464466,5.14644661 C15.3417088,4.95118446 15.6582912,4.95118446 15.8535534,5.14644661 C16.0271197,5.32001296 16.0464049,5.58943736 15.9114088,5.7843055 L15.8535534,5.85355339 L11.207,10.5 L15.8535534,15.1464466 C16.0488155,15.3417088 16.0488155,15.6582912 15.8535534,15.8535534 C15.679987,16.0271197 15.4105626,16.0464049 15.2156945,15.9114088 L15.1464466,15.8535534 L10.5,11.207 L5.85355339,15.8535534 C5.65829124,16.0488155 5.34170876,16.0488155 5.14644661,15.8535534 C4.97288026,15.679987 4.95359511,15.4105626 5.08859116,15.2156945 L5.14644661,15.1464466 L9.793,10.5 L5.14644661,5.85355339 C4.95118446,5.65829124 4.95118446,5.34170876 5.14644661,5.14644661 C5.32001296,4.97288026 5.58943736,4.95359511 5.7843055,5.08859116 Z" id="Combined-Shape" fill="#57565F"></path>
    </g>
</svg>