<?xml version="1.0" encoding="UTF-8"?>
<svg width="20px" height="20px" viewBox="0 0 20 20" version="1.1" xmlns="http://www.w3.org/2000/svg" xmlns:xlink="http://www.w3.org/1999/xlink">
    <title> icon_info-outlined</title>
    <g id="-icon_info-outlined" stroke="none" stroke-width="1" fill="none" fill-rule="evenodd">
        <rect id="container" x="0" y="0" width="20" height="20"></rect>
        <path d="M10,2 C14.416,2 18,5.584 18,10 C18,14.416 14.416,18 10,18 C5.584,18 2,14.416 2,10 C2,5.584 5.584,2 10,2 Z M10,3 C6.13628475,3 3,6.13628475 3,10 C3,13.8637153 6.13628475,17 10,17 C13.8637153,17 17,13.8637153 17,10 C17,6.13628475 13.8637153,3 10,3 Z M10,8.5 C10.2761424,8.5 10.5,8.72385763 10.5,9 L10.5,9 L10.5,13 L10.4919443,13.0898756 C10.4496084,13.3231248 10.2454599,13.5 10,13.5 C9.72385763,13.5 9.5,13.2761424 9.5,13 L9.5,13 L9.5,9 L9.50805567,8.91012437 C9.55039163,8.67687516 9.75454011,8.5 10,8.5 Z M10,6 C10.2761424,6 10.5,6.22385763 10.5,6.5 L10.5,6.5 L10.5,7 L10.4919443,7.08987563 C10.4496084,7.32312484 10.2454599,7.5 10,7.5 C9.72385763,7.5 9.5,7.27614237 9.5,7 L9.5,7 L9.5,6.5 L9.50805567,6.41012437 C9.55039163,6.17687516 9.75454011,6 10,6 Z" id="Combined-Shape" fill="#57565F"></path>
    </g>
</svg>