<?xml version="1.0" encoding="UTF-8"?>
<svg width="20px" height="20px" viewBox="0 0 20 20" version="1.1" xmlns="http://www.w3.org/2000/svg" xmlns:xlink="http://www.w3.org/1999/xlink">
    <title>icon_warning-outlined</title>
    <g id="icon_warning-outlined" stroke="none" stroke-width="1" fill="none" fill-rule="evenodd">
        <path d="M10.4006877,3.18467602 L10.4547144,3.26149911 L17.9310034,16.2237817 C17.9762175,16.3021734 18,16.390898 18,16.4811857 C18,16.7358819 17.8147529,16.9477122 17.5704634,16.9916412 L17.4763338,17 L2.52375586,17 C2.43262382,17 2.34306941,16.9764379 2.26394464,16.9316427 C2.04073833,16.805278 1.9470064,16.5408314 2.02971017,16.308899 L2.06908623,16.2237817 L9.54537518,3.26149911 C9.5917664,3.18106666 9.65904894,3.11440752 9.74023359,3.06844612 C9.9634399,2.94208142 10.2409884,2.99633345 10.4006877,3.18467602 Z M10,4.474 L3.352,16 L16.647,16 L10,4.474 Z M10,14 C10.2454599,14 10.4496084,14.1768752 10.4919443,14.4101244 L10.5,14.5 L10.5,15 C10.5,15.2761424 10.2761424,15.5 10,15.5 C9.75454011,15.5 9.55039163,15.3231248 9.50805567,15.0898756 L9.5,15 L9.5,14.5 C9.5,14.2238576 9.72385763,14 10,14 Z M10,8 C10.2454599,8 10.4496084,8.17687516 10.4919443,8.41012437 L10.5,8.5 L10.5,12.5 C10.5,12.7761424 10.2761424,13 10,13 C9.75454011,13 9.55039163,12.8231248 9.50805567,12.5898756 L9.5,12.5 L9.5,8.5 C9.5,8.22385763 9.72385763,8 10,8 Z" id="Combined-Shape" fill="#57565F"></path>
    </g>
</svg>