<?xml version="1.0" encoding="UTF-8"?>
<svg width="20px" height="20px" viewBox="0 0 20 20" version="1.1" xmlns="http://www.w3.org/2000/svg" xmlns:xlink="http://www.w3.org/1999/xlink">
    <title>icon_people</title>
    <g id="icon_people" stroke="none" stroke-width="1" fill="none" fill-rule="evenodd">
        <g id="people_alt-24px">
            <rect id="Rectangle" x="0" y="0" width="20" height="20"></rect>
            <g id="Group" transform="translate(1.666667, 4.166667)" fill="#57565F">
                <path d="M11.8712121,6.91666667 C12.9090909,7.62121212 13.6363636,8.57575758 13.6363636,9.84848485 L13.6363636,12.1212121 L16.6666667,12.1212121 L16.6666667,9.84848485 C16.6666667,8.1969697 13.9621212,7.21969697 11.8712121,6.91666667 Z" id="Path"></path>
                <circle id="Oval" cx="6.06060606" cy="3.03030303" r="3.03030303"></circle>
                <path d="M10.6060606,6.06060606 C12.280303,6.06060606 13.6363636,4.70454545 13.6363636,3.03030303 C13.6363636,1.35606061 12.280303,0 10.6060606,0 C10.25,0 9.91666667,0.0757575758 9.59848485,0.181818182 C10.2272727,0.962121212 10.6060606,1.95454545 10.6060606,3.03030303 C10.6060606,4.10606061 10.2272727,5.09848485 9.59848485,5.87878788 C9.91666667,5.98484848 10.25,6.06060606 10.6060606,6.06060606 Z" id="Path"></path>
                <path d="M6.06060606,6.81818182 C4.03787879,6.81818182 0,7.83333333 0,9.84848485 L0,12.1212121 L12.1212121,12.1212121 L12.1212121,9.84848485 C12.1212121,7.83333333 8.08333333,6.81818182 6.06060606,6.81818182 Z" id="Path"></path>
            </g>
        </g>
    </g>
</svg>