<?xml version="1.0" encoding="UTF-8"?>
<svg width="20px" height="20px" viewBox="0 0 20 20" version="1.1" xmlns="http://www.w3.org/2000/svg" xmlns:xlink="http://www.w3.org/1999/xlink">
    <title>icon_question-circle-outlined</title>
    <g id="icon_question-circle-outlined" stroke="none" stroke-width="1" fill="none" fill-rule="evenodd">
        <path d="M10,2 C14.418278,2 18,5.581722 18,10 C18,14.418278 14.418278,18 10,18 C5.581722,18 2,14.418278 2,10 C2,5.581722 5.581722,2 10,2 Z M10,3 C6.13400675,3 3,6.13400675 3,10 C3,13.8659932 6.13400675,17 10,17 C13.8659932,17 17,13.8659932 17,10 C17,6.13400675 13.8659932,3 10,3 Z M10.5,14 L10.5,15.5 L9.5,15.5 L9.5,14 L10.5,14 Z M10.0757576,4.5 C11.7758516,4.5 12.9190531,5.80149305 12.995873,7.58924077 L13,7.7826087 L12.9932805,7.95552953 C12.9354969,8.69738322 12.5064325,9.40346304 11.7601098,10.2079527 L11.5150233,10.4640092 L10.6465312,11.3152148 L10.4044051,11.5742238 C10.3359591,11.8099159 10.328354,12.1976527 10.3918778,12.7242114 L10.4190534,12.9281524 L9.42943142,13.0718476 C9.31906126,12.3117331 9.31906126,11.72584 9.44407979,11.2953414 C9.50298412,11.0925056 9.63077865,10.9226791 9.89393018,10.6538184 L10.6530872,9.91104351 L10.8498814,9.71420113 C11.5479883,8.99599495 11.9372652,8.40587936 11.9930231,7.90578018 L12,7.7826087 L11.9957184,7.60649362 C11.9331362,6.33458754 11.1892345,5.5 10.0757576,5.5 C8.98724328,5.5 8.3227006,6.16445871 8.03239185,7.64599376 L7.99345961,7.86321645 L7.00654039,7.70200095 C7.3456884,5.62582526 8.38782306,4.5 10.0757576,4.5 Z" id="Combined-Shape" fill="#57565F"></path>
    </g>
</svg>