<?xml version="1.0" encoding="UTF-8"?>
<svg width="20px" height="20px" viewBox="0 0 20 20" version="1.1" xmlns="http://www.w3.org/2000/svg" xmlns:xlink="http://www.w3.org/1999/xlink">
    <title>icon_group-add</title>
    <g id="icon_group-add" stroke="none" stroke-width="1" fill="none" fill-rule="evenodd">
        <g id="group_add-24px">
            <polygon id="Path" points="0 0 20 0 20 20 0 20"></polygon>
            <path d="M6.66666667,8.33333333 L4.16666667,8.33333333 L4.16666667,5.83333333 L2.5,5.83333333 L2.5,8.33333333 L0,8.33333333 L0,10 L2.5,10 L2.5,12.5 L4.16666667,12.5 L4.16666667,10 L6.66666667,10 L6.66666667,8.33333333 Z M15,9.16666667 C16.3833333,9.16666667 17.4916667,8.05 17.4916667,6.66666667 C17.4916667,5.28333333 16.3833333,4.16666667 15,4.16666667 C14.7333333,4.16666667 14.475,4.20833333 14.2416667,4.28333333 C14.7166667,4.95833333 14.9916667,5.775 14.9916667,6.66666667 C14.9916667,7.55833333 14.7083333,8.36666667 14.2416667,9.05 C14.475,9.125 14.7333333,9.16666667 15,9.16666667 Z M10.8333333,9.16666667 C12.2166667,9.16666667 13.325,8.05 13.325,6.66666667 C13.325,5.28333333 12.2166667,4.16666667 10.8333333,4.16666667 C9.45,4.16666667 8.33333333,5.28333333 8.33333333,6.66666667 C8.33333333,8.05 9.45,9.16666667 10.8333333,9.16666667 Z M16.35,10.9666667 C17.0416667,11.575 17.5,12.35 17.5,13.3333333 L17.5,15 L20,15 L20,13.3333333 C20,12.05 18.025,11.2583333 16.35,10.9666667 Z M10.8333333,10.8333333 C9.16666667,10.8333333 5.83333333,11.6666667 5.83333333,13.3333333 L5.83333333,15 L15.8333333,15 L15.8333333,13.3333333 C15.8333333,11.6666667 12.5,10.8333333 10.8333333,10.8333333 Z" id="Shape" fill="#57565F"></path>
        </g>
    </g>
</svg>