<?xml version="1.0" encoding="UTF-8"?>
<svg width="20px" height="20px" viewBox="0 0 20 20" version="1.1" xmlns="http://www.w3.org/2000/svg" xmlns:xlink="http://www.w3.org/1999/xlink">
    <title>icon_download@1x</title>
    <g id="icon_download" stroke="none" stroke-width="1" fill="none" fill-rule="evenodd">
        <path d="M2,12.5 C2,12.2238576 2.22385763,12 2.5,12 C2.74545989,12 2.94960837,12.1768752 2.99194433,12.4101244 L3,12.5 L3,17 L17,17 L17,12.5 C17,12.2545401 17.1768752,12.0503916 17.4101244,12.0080557 L17.5,12 C17.7454599,12 17.9496084,12.1768752 17.9919443,12.4101244 L18,12.5 L18,18 L2,18 L2,12.5 Z M5.54519957,9.70806797 L5.58859116,9.7843055 L5.64644661,9.85355339 L10,14 L14.3535534,9.85355339 C14.5488155,9.65829124 14.5488155,9.34170876 14.3535534,9.14644661 C14.179987,8.97288026 13.9105626,8.95359511 13.7156945,9.08859116 L13.6464466,9.14644661 L10.5,12.293 L10.5,3.5 C10.5,3.22385763 10.2761424,3 10,3 C9.75454011,3 9.55039163,3.17687516 9.50805567,3.41012437 L9.5,3.5 L9.5,12.293 L6.35355339,9.14644661 C6.17998704,8.97288026 5.91056264,8.95359511 5.7156945,9.08859116 L5.64644661,9.14644661 C5.49457605,9.29831717 5.46082704,9.52357904 5.54519957,9.70806797 Z" id="Shape" fill="#57565F"></path>
    </g>
</svg>