<?xml version="1.0" encoding="UTF-8"?>
<svg width="20px" height="20px" viewBox="0 0 20 20" version="1.1" xmlns="http://www.w3.org/2000/svg" xmlns:xlink="http://www.w3.org/1999/xlink">
    <title>icon_trash</title>
    <g id="icon_trash" stroke="none" stroke-width="1" fill="none" fill-rule="evenodd">
        <g id="trash" transform="translate(3.000000, 2.000000)" fill="#57565F">
            <path d="M8.5,0.5 C9.43231169,0.5 9.94155315,0.933398466 9.99525803,1.83586476 L10,2 L10,3 L13.4615385,3 C13.7589226,3 14,3.22385763 14,3.5 C14,3.74545989 13.8095191,3.94960837 13.5583276,3.99194433 L13.4615385,4 L12,4 L12,14.6078431 C12,15.5785081 11.6007752,15.9594888 10.6615599,15.9969032 L10.5,16 L3.5,16 C2.50035132,16 2.04851344,15.6701069 2.00372066,14.7642028 L2,14.6078431 L2,4 L0.538461538,4 C0.241077442,4 0,3.77614237 0,3.5 C0,3.25454011 0.190480942,3.05039163 0.441672396,3.00805567 L0.538461538,3 L4,3 L4,2 C4,1.04222583 4.45744637,0.555617684 5.33987275,0.504506206 L5.5,0.5 L8.5,0.5 Z M11,4 L3,4 L2.99943222,14.778915 C3.00131312,14.9653733 3.02732579,14.9960443 3.24042987,15.0000793 L10.7595701,15.0000793 C10.9538056,14.9964015 10.9926137,14.9705958 10.9993875,14.8248687 L11,4 Z M5.5,6.5 C5.74545989,6.5 5.94960837,6.67687516 5.99194433,6.91012437 L6,7 L6,12 C6,12.2761424 5.77614237,12.5 5.5,12.5 C5.25454011,12.5 5.05039163,12.3231248 5.00805567,12.0898756 L5,12 L5,7 C5,6.72385763 5.22385763,6.5 5.5,6.5 Z M8.5,6.5 C8.74545989,6.5 8.94960837,6.67687516 8.99194433,6.91012437 L9,7 L9,12 C9,12.2761424 8.77614237,12.5 8.5,12.5 C8.25454011,12.5 8.05039163,12.3231248 8.00805567,12.0898756 L8,12 L8,7 C8,6.72385763 8.22385763,6.5 8.5,6.5 Z M8.5,1.5 L5.5,1.5 C5.08776863,1.5 5.01054429,1.54312156 5.00110286,1.90321467 L5,3 L9,3 L9,2 L8.99497,1.81963649 C8.97802427,1.58776179 8.91042452,1.52134688 8.67943558,1.50486129 L8.5,1.5 Z" id="Combined-Shape"></path>
        </g>
    </g>
</svg>