<?xml version="1.0" encoding="UTF-8"?>
<svg width="20px" height="20px" viewBox="0 0 20 20" version="1.1" xmlns="http://www.w3.org/2000/svg" xmlns:xlink="http://www.w3.org/1999/xlink">
    <title>icon_error-outlined</title>
    <g id="icon_error-outlined" stroke="none" stroke-width="1" fill="none" fill-rule="evenodd">
        <rect id="container" x="0" y="0" width="20" height="20"></rect>
        <path d="M10.3629496,2.15033863 L17.8496614,9.63705045 C18.0501129,9.83750195 18.0501129,10.1624981 17.8496614,10.3629496 L10.3629496,17.8496614 C10.1624981,18.0501129 9.83750195,18.0501129 9.63705045,17.8496614 L2.15033863,10.3629496 C1.94988712,10.1624981 1.94988712,9.83750195 2.15033863,9.63705045 L9.63705045,2.15033863 C9.83750195,1.94988712 10.1624981,1.94988712 10.3629496,2.15033863 Z M10,3.202 L3.202,10 L10,16.798 L16.798,10 L10,3.202 Z M10,12 C10.2454599,12 10.4496084,12.1768752 10.4919443,12.4101244 L10.5,12.5 L10.5,13 C10.5,13.2761424 10.2761424,13.5 10,13.5 C9.75454011,13.5 9.55039163,13.3231248 9.50805567,13.0898756 L9.5,13 L9.5,12.5 C9.5,12.2238576 9.72385763,12 10,12 Z M10,6 C10.2454599,6 10.4496084,6.17687516 10.4919443,6.41012437 L10.5,6.5 L10.5,10.5 C10.5,10.7761424 10.2761424,11 10,11 C9.75454011,11 9.55039163,10.8231248 9.50805567,10.5898756 L9.5,10.5 L9.5,6.5 C9.5,6.22385763 9.72385763,6 10,6 Z" id="Combined-Shape" fill="#57565F"></path>
    </g>
</svg>