<?xml version="1.0" encoding="UTF-8"?>
<svg width="20px" height="20px" viewBox="0 0 20 20" version="1.1" xmlns="http://www.w3.org/2000/svg" xmlns:xlink="http://www.w3.org/1999/xlink">
    <title>icon_time</title>
    <g id="icon_time" stroke="none" stroke-width="1" fill="none" fill-rule="evenodd">
        <g id="clock" transform="translate(2.000000, 2.000000)" fill="#57565F">
            <path d="M7.84313725,2.87769808e-13 C12.1747824,2.87769808e-13 15.6862745,3.51149216 15.6862745,7.84313725 C15.6862745,12.1747824 12.1747824,15.6862745 7.84313725,15.6862745 C3.51149216,15.6862745 -1.66977543e-13,12.1747824 -1.66977543e-13,7.84313725 C-1.66977543e-13,3.51149216 3.51149216,2.87769808e-13 7.84313725,2.87769808e-13 Z M7.84313725,1 C4.06377691,1 1,4.06377691 1,7.84313725 C1,11.6224976 4.06377691,14.6862745 7.84313725,14.6862745 C11.6224976,14.6862745 14.6862745,11.6224976 14.6862745,7.84313725 C14.6862745,4.06377691 11.6224976,1 7.84313725,1 Z M7.84313725,2.6372549 C8.08859714,2.6372549 8.29274563,2.81413006 8.33508159,3.04737927 L8.34313725,3.1372549 L8.343,7.534 L11.203999,8.96455111 C11.423545,9.07432411 11.5270399,9.32382404 11.4605941,9.55138169 L11.4276058,9.6353715 C11.3178328,9.8549175 11.0683328,9.95841248 10.8407752,9.8919667 L10.7567854,9.8589783 L7.61953046,8.29035085 C7.47837045,8.21977084 7.3805374,8.08777726 7.35184749,7.93614156 L7.34313725,7.84313725 L7.34313725,3.1372549 C7.34313725,2.86111253 7.56699488,2.6372549 7.84313725,2.6372549 Z" id="Combined-Shape"></path>
        </g>
    </g>
</svg>