<?xml version="1.0" encoding="UTF-8"?>
<svg width="20px" height="20px" viewBox="0 0 20 20" version="1.1" xmlns="http://www.w3.org/2000/svg" xmlns:xlink="http://www.w3.org/1999/xlink">
    <title>icon_upload</title>
    <g id="icon_upload" stroke="none" stroke-width="1" fill="none" fill-rule="evenodd">
        <g id="Group" transform="translate(3.000000, 3.000000)" fill="#57565F">
            <path d="M11.3575033,6.25864973 L7.35750333,10.3495588 L7.30965538,10.3926253 L7.20732429,10.4551386 L7.11303386,10.4871299 L7.04326465,10.4981541 L6.95690916,10.4981541 L6.86773538,10.4822726 L6.77814748,10.4482424 L6.71109016,10.4081886 L6.64249667,10.3495588 L2.64249667,6.25864973 C2.44944066,6.06120609 2.45299754,5.74464358 2.65044118,5.55158757 C2.82594664,5.37998224 3.09557071,5.36372535 3.28890984,5.50090228 L3.35750333,5.55953209 L6.499,8.772 L6.4999998,1 C6.4999998,0.723857625 6.72385763,0.5 6.9999998,0.5 C7.24545989,0.5 7.44960837,0.676875161 7.49194433,0.910124368 L7.4999998,1 L7.499,8.774 L10.6424967,5.55953209 C10.8355527,5.36208845 11.1521152,5.35853157 11.3495588,5.55158757 C11.5250643,5.72319291 11.5473753,5.99238363 11.4145771,6.18875619 L11.3575033,6.25864973 Z" id="Combined-Shape" transform="translate(7.000000, 5.499077) scale(1, -1) translate(-7.000000, -5.499077) "></path>
            <path d="M13,7.5 C13.2454599,7.5 13.4496084,7.67687516 13.4919443,7.91012437 L13.5,8 L13.5,13.5 L0.5,13.5 L0.5,8 C0.5,7.72385763 0.723857625,7.5 1,7.5 C1.24545989,7.5 1.44960837,7.67687516 1.49194433,7.91012437 L1.5,8 L1.5,12.5 L12.5,12.5 L12.5,8 C12.5,7.75454011 12.6768752,7.55039163 12.9101244,7.50805567 L13,7.5 Z" id="Path-16"></path>
        </g>
    </g>
</svg>