<?xml version="1.0" encoding="UTF-8"?>
<svg width="20px" height="20px" viewBox="0 0 20 20" version="1.1" xmlns="http://www.w3.org/2000/svg" xmlns:xlink="http://www.w3.org/1999/xlink">
    <title>icon_my data</title>
    <g id="icon_my-data" stroke="none" stroke-width="1" fill="none" fill-rule="evenodd">
        <path d="M7.9,12.1 C7.9,13.259798 8.84020203,14.2 10,14.2 C11.159798,14.2 12.1,13.259798 12.1,12.1 L18,12.1 L18,18 L2,18 L2,12.1 L7.9,12.1 Z M16,6 L16,12 L15,12 L15,7 L5,7 L5,12 L4,12 L4,6 L16,6 Z M14,3 L13.999,5 L13,5 L13,4 L7,4 L7,5 L5.999,5 L6,3 L14,3 Z" id="Shape" fill="#57565F"></path>
    </g>
</svg>