<?xml version="1.0" encoding="UTF-8"?>
<svg width="20px" height="20px" viewBox="0 0 20 20" version="1.1" xmlns="http://www.w3.org/2000/svg" xmlns:xlink="http://www.w3.org/1999/xlink">
    <title>icon_export@1x</title>
    <g id="icon_export" stroke="none" stroke-width="1" fill="none" fill-rule="evenodd">
        <path d="M8.5,2 C8.77614237,2 9,2.22385763 9,2.5 C9,2.74545989 8.82312484,2.94960837 8.58987563,2.99194433 L8.5,3 L4,3 L4,17 L8.5,17 C8.74545989,17 8.94960837,17.1768752 8.99194433,17.4101244 L9,17.5 C9,17.7454599 8.82312484,17.9496084 8.58987563,17.9919443 L8.5,18 L3,18 L3,2 L8.5,2 Z M13.708068,6.04519957 L13.7843055,6.08859116 L13.8535534,6.14644661 L18,10.5 L13.8535534,14.8535534 C13.6582912,15.0488155 13.3417088,15.0488155 13.1464466,14.8535534 C12.9728803,14.679987 12.9535951,14.4105626 13.0885912,14.2156945 L13.1464466,14.1464466 L16.293,11 L7.5,11 C7.22385763,11 7,10.7761424 7,10.5 C7,10.2545401 7.17687516,10.0503916 7.41012437,10.0080557 L7.5,10 L16.293,10 L13.1464466,6.85355339 C12.9728803,6.67998704 12.9535951,6.41056264 13.0885912,6.2156945 L13.1464466,6.14644661 C13.2983172,5.99457605 13.523579,5.96082704 13.708068,6.04519957 Z" id="Combined-Shape" fill="#57565F"></path>
    </g>
</svg>