<?xml version="1.0" encoding="UTF-8"?>
<svg width="20px" height="20px" viewBox="0 0 20 20" version="1.1" xmlns="http://www.w3.org/2000/svg" xmlns:xlink="http://www.w3.org/1999/xlink">
    <title>icon_calendar</title>
    <g id="icon_calendar" stroke="none" stroke-width="1" fill="none" fill-rule="evenodd">
        <g id="calendar" transform="translate(2.000000, 2.000000)" fill="#57565F">
            <path d="M16,15 C16,15.5522847 15.5522847,16 15,16 L1,16 C0.44771525,16 0,15.5522847 0,15 L0,2 C0,1.44771525 0.44771525,1 1,1 L4,1 L4,0.5 C4,0.223857625 4.22385763,0 4.5,0 C4.74545989,0 4.94960837,0.176875161 4.99194433,0.410124368 L5,0.5 L5,1 L11,1 L11,0.5 C11,0.223857625 11.2238576,0 11.5,0 C11.7454599,0 11.9496084,0.176875161 11.9919443,0.410124368 L12,0.5 L12,1 L15,1 C15.5522847,1 16,1.44771525 16,2 L16,15 Z M15,7 L1,7 L1,15 L15,15 L15,7 Z M4,2 L1,2 L1,6 L15,6 L15,2 L12,2 L12,3.5 C12,3.77614237 11.7761424,4 11.5,4 C11.2545401,4 11.0503916,3.82312484 11.0080557,3.58987563 L11,3.5 L11,2 L5,2 L5,3.5 C5,3.77614237 4.77614237,4 4.5,4 C4.25454011,4 4.05039163,3.82312484 4.00805567,3.58987563 L4,3.5 L4,2 Z" id="Combined-Shape"></path>
        </g>
    </g>
</svg>