<?xml version="1.0" encoding="UTF-8"?>
<svg width="20px" height="20px" viewBox="0 0 20 20" version="1.1" xmlns="http://www.w3.org/2000/svg" xmlns:xlink="http://www.w3.org/1999/xlink">
    <title>icon_list-view</title>
    <g id="icon_list-view" stroke="none" stroke-width="1" fill="none" fill-rule="evenodd">
        <path d="M3,12 L6,12 L6,9 L3,9 L3,12 Z M3,16 L6,16 L6,13 L3,13 L3,16 Z M3,8 L6,8 L6,5 L3,5 L3,8 Z M7,12 L17,12 L17,9 L7,9 L7,12 Z M7,16 L17,16 L17,13 L7,13 L7,16 Z M7,5 L7,8 L17,8 L17,5 L7,5 Z" id="Shape" fill="#57565F"></path>
    </g>
</svg>