<?xml version="1.0" encoding="UTF-8"?>
<svg width="20px" height="20px" viewBox="0 0 20 20" version="1.1" xmlns="http://www.w3.org/2000/svg" xmlns:xlink="http://www.w3.org/1999/xlink">
    <title>icon_cross-circle</title>
    <g id="icon_cross-circle" stroke="none" stroke-width="1" fill="none" fill-rule="evenodd">
        <g id="cancel-24px" opacity="0.87">
            <polygon id="Path" points="0 0 20 0 20 20 0 20"></polygon>
        </g>
        <path d="M10,2 C14.424,2 18,5.576 18,10 C18,14.424 14.424,18 10,18 C5.576,18 2,14.424 2,10 C2,5.576 5.576,2 10,2 Z M6.80922053,6.05165665 C6.59837605,5.9552309 6.34093391,5.9938012 6.16736755,6.16736755 C5.94421082,6.39052429 5.94421082,6.75233285 6.16736755,6.97548959 L6.16736755,6.97548959 L9.192,10 L6.16736755,13.0245104 L6.10124704,13.1036509 C5.94696584,13.3263573 5.96900601,13.6342709 6.16736755,13.8326324 C6.39052429,14.0557892 6.75233285,14.0557892 6.97548959,13.8326324 L6.97548959,13.8326324 L10,10.808 L13.0245104,13.8326324 L13.1036509,13.898753 C13.3263573,14.0530342 13.6342709,14.030994 13.8326324,13.8326324 C14.0557892,13.6094757 14.0557892,13.2476671 13.8326324,13.0245104 L13.8326324,13.0245104 L10.808,10 L13.8326324,6.97548959 L13.898753,6.89634915 C14.0530342,6.6736427 14.030994,6.3657291 13.8326324,6.16736755 C13.6094757,5.94421082 13.2476671,5.94421082 13.0245104,6.16736755 L13.0245104,6.16736755 L10,9.192 L6.97548959,6.16736755 L6.89634915,6.10124704 Z" id="Combined-Shape" fill="#57565F"></path>
    </g>
</svg>