<?xml version="1.0" encoding="UTF-8"?>
<svg width="20px" height="20px" viewBox="0 0 20 20" version="1.1" xmlns="http://www.w3.org/2000/svg" xmlns:xlink="http://www.w3.org/1999/xlink">
    <title>icon_search</title>
    <g id="icon_search" stroke="none" stroke-width="1" fill="none" fill-rule="evenodd">
        <path d="M9.7808142,3 C13.5257545,3 16.5616284,6.02424358 16.5616284,9.75483709 C16.5616284,11.2088507 16.1004544,12.5555639 15.3158693,13.6577418 L18,16.3335268 L17.3309638,17 L14.7122154,14.3911411 C13.4759312,15.6955889 11.7238082,16.5096742 9.7808142,16.5096742 C6.03587393,16.5096742 3,13.4854306 3,9.75483709 C3,6.02424358 6.03587393,3 9.7808142,3 Z M9.7808142,3.94253541 C6.55842373,3.94253541 3.94616012,6.54479151 3.94616012,9.75483709 C3.94616012,12.9648827 6.55842373,15.5671388 9.7808142,15.5671388 C11.4625116,15.5671388 12.9780363,14.8583948 14.0428094,13.7243955 L13.9011333,13.5833091 L14.5701696,12.916836 L14.634913,12.9809637 C15.2543085,12.0579716 15.6154683,10.9484195 15.6154683,9.75483709 C15.6154683,6.54479151 13.0032047,3.94253541 9.7808142,3.94253541 Z" id="Combined-Shape" fill="#57565F"></path>
    </g>
</svg>