<?xml version="1.0" encoding="UTF-8"?>
<svg width="20px" height="20px" viewBox="0 0 20 20" version="1.1" xmlns="http://www.w3.org/2000/svg" xmlns:xlink="http://www.w3.org/1999/xlink">
    <title> icon_report</title>
    <g id="-icon_report" stroke="none" stroke-width="1" fill="none" fill-rule="evenodd">
        <path d="M14,4 L18,8 L18,16 L2,16 L2,4 L14,4 Z M7,6 L6.80035966,6.00489531 C4.68396847,6.10892112 3,7.85780461 3,10 C3,12.209139 4.790861,14 7,14 C9.209139,14 11,12.209139 11,10 L11,10 L7,10 L7,6 Z M16,12 L12,12 L12,13 L16,13 L16,12 Z M17,9 L12,9 L12,10 L17,10 L17,9 Z" id="Combined-Shape" fill="#57565F"></path>
    </g>
</svg>