<?xml version="1.0" encoding="UTF-8"?>
<svg width="20px" height="20px" viewBox="0 0 20 20" version="1.1" xmlns="http://www.w3.org/2000/svg" xmlns:xlink="http://www.w3.org/1999/xlink">
    <title>icon_more-horizontal</title>
    <g id="icon_more-horizontal" stroke="none" stroke-width="1" fill="none" fill-rule="evenodd">
        <path d="M10.5,8 C11.3284271,8 12,8.67157288 12,9.5 C12,10.3284271 11.3284271,11 10.5,11 C9.67157288,11 9,10.3284271 9,9.5 C9,8.67157288 9.67157288,8 10.5,8 Z M16.5,8 C17.3284271,8 18,8.67157288 18,9.5 C18,10.3284271 17.3284271,11 16.5,11 C15.6715729,11 15,10.3284271 15,9.5 C15,8.67157288 15.6715729,8 16.5,8 Z M4.5,8 C5.32842712,8 6,8.67157288 6,9.5 C6,10.3284271 5.32842712,11 4.5,11 C3.67157288,11 3,10.3284271 3,9.5 C3,8.67157288 3.67157288,8 4.5,8 Z" id="Combined-Shape" fill="#57565F"></path>
    </g>
</svg>