<?xml version="1.0" encoding="UTF-8"?>
<svg width="130px" height="41px" viewBox="0 0 130 41" version="1.1" xmlns="http://www.w3.org/2000/svg" xmlns:xlink="http://www.w3.org/1999/xlink">
    <!-- Generator: Sketch 63.1 (92452) - https://sketch.com -->
    <title>Shape</title>
    <desc>Created with Sketch.</desc>
    <g id="Page-1" stroke="none" stroke-width="1" fill="none" fill-rule="evenodd">
        <g id="img_logo_ph_light" fill="#FFFFFF" fill-rule="nonzero">
            <g id="Group-3">
                <path d="M17.7424828,22.7337379 L23.7157456,26.1692178 L23.7157456,37.6085859 C23.716936,37.7420812 23.6452686,37.8654488 23.5291799,37.9296587 L18.297534,40.9523305 C18.1176265,41.0527155 17.8911265,40.9895068 17.7880171,40.8101412 C17.7575968,40.752238 17.7419618,40.6876065 17.7424828,40.6220841 L17.7424828,22.7337379 Z M18.5067998,0.199008461 L23.3199141,3.00151603 C23.5506823,3.13365045 23.6931682,3.38067627 23.6929532,3.64824855 L23.6929532,15.1151372 C23.6946737,15.1763563 23.6753917,15.236299 23.6383621,15.2848471 C23.5266539,15.4513066 23.3068033,15.5032277 23.1333946,15.4041028 L17.9563396,12.3906044 C17.8416607,12.3249434 17.7705284,12.202497 17.7698201,12.0695315 L17.7698201,5.79026334 L6.06458082,12.6107687 C5.97689466,12.6595756 5.92276459,12.7528834 5.92355384,12.8538667 L5.92355384,21.362298 L17.0328404,14.8949729 C17.4905426,14.6296283 18.0536468,14.6296283 18.511349,14.8949729 L29.6160864,21.3577114 L29.6160864,7.31306615 C29.614366,7.25184703 29.6336479,7.19190421 29.6706775,7.1433562 C29.7823859,6.97689663 30.0022363,6.92497564 30.1756451,7.02410056 L34.8477324,9.74863329 C35.2763527,9.9992136 35.5412142,10.4599966 35.5439059,10.9595367 L35.5439059,30.0496128 C35.5478753,30.5509528 35.2812131,31.0148684 34.8477324,31.2605163 L30.1756451,33.9850491 C29.9994575,34.0865737 29.7750963,34.0274736 29.6706775,33.8520332 C29.640257,33.79413 29.6246222,33.7294985 29.6251848,33.6639761 L29.6251848,27.3526006 L17.7971156,20.4724675 L5.94175086,27.3526006 L5.94175086,33.6869099 C5.94347123,33.748129 5.92418926,33.8080719 5.88715977,33.8566198 C5.77545143,34.0230795 5.55560094,34.0750004 5.3821922,33.9758755 L0.696457079,31.2788633 C0.267836789,31.028283 0.00297525465,30.5674999 0.000420696224,30.0679599 L0.000420696224,10.95495 C-0.0121013396,10.4454444 0.255718288,9.97069072 0.696457079,9.72111276 L17.0282912,0.199008461 C17.4859934,-0.0663361538 18.0490976,-0.0663361538 18.5067998,0.199008461 Z M106.898871,16.8533201 C107.615103,16.8506305 108.328858,16.9384665 109.023374,17.1149625 C109.662082,17.2715253 110.251717,17.5869075 110.738444,18.0323136 C111.184421,18.4313336 111.527836,18.9333893 111.739281,19.4954885 C111.940969,20.0601868 112.041105,20.6566383 112.034983,21.2568027 C112.030284,21.6757112 111.987648,22.0933117 111.907604,22.5044001 L105.060971,22.5044001 L105.060971,22.788779 C105.016273,23.4078673 105.302372,24.0040114 105.811599,24.3528626 C106.355992,24.6968003 106.989106,24.8707457 107.631302,24.852819 C108.124604,24.8466766 108.61637,24.79602 109.100712,24.701456 C109.784005,24.5643271 110.459731,24.3913238 111.125131,24.1831526 L111.138779,24.1831526 L111.073534,24.5131884 C110.98077,25.010009 110.840261,25.8494554 110.652009,27.0315278 C109.896832,27.1813618 109.261452,27.2807414 108.74587,27.3296669 C108.230287,27.3785923 107.708639,27.4030549 107.180925,27.4030549 C106.465069,27.4081201 105.749991,27.3544307 105.042774,27.2425185 C104.451993,27.15533 103.881732,26.9610863 103.359549,26.6691741 C102.901935,26.4068397 102.498789,26.0579931 102.172193,25.6417409 C101.840015,25.2064865 101.592997,24.7114909 101.444311,24.1831526 C101.27779,23.6189808 101.193505,23.0333962 101.194093,22.4447724 C101.196122,21.5982908 101.366274,20.7607906 101.694521,19.9816847 C101.969627,19.2618885 102.409142,18.6176102 102.977411,18.101115 C103.505205,17.6473273 104.126931,17.3182305 104.797114,17.1378963 C105.481767,16.9479386 106.188769,16.8522776 106.898871,16.8533201 Z M73.8212205,16.8489308 C74.5316911,16.8419505 75.2399498,16.9298631 75.9275268,17.1103757 C76.4933869,17.2429074 77.0106219,17.5338654 77.4196832,17.949752 C77.7556685,18.355152 77.9448532,18.8610873 77.9604949,19.3848415 L77.9524517,19.8318506 C77.9403204,20.2217249 77.9008935,20.8696041 77.8341711,21.7754883 L77.8109193,22.0870054 C77.7138684,23.3712969 77.6395639,25.0531073 77.5880057,27.1324364 L73.7347846,27.1324364 L73.7693306,26.8258404 C73.8509329,26.0265027 73.9395012,24.6395348 74.0350356,22.6649367 L73.7063518,22.8185929 C73.6100592,22.8614026 73.5270352,22.8958033 73.4572799,22.9217949 L73.2389156,22.9966507 C73.1491436,23.0257613 73.0423877,23.0590306 72.9186479,23.0964585 L72.7203003,23.1557194 C72.368491,23.2596859 72.0940191,23.3483632 71.8968847,23.4217512 C71.7112036,23.4865146 71.5363422,23.5793055 71.3782694,23.6969566 C71.2500359,23.787207 71.1429054,23.904613 71.0643706,24.0409632 C71.0022108,24.1628615 70.9709525,24.2983806 70.9733854,24.4354242 C70.973036,24.6551465 71.0697479,24.8636143 71.2372424,25.0041819 C71.4792411,25.1812004 71.7764536,25.2642589 72.0743057,25.2381064 C72.2266447,25.2373719 72.378714,25.225106 72.5292315,25.2014123 C72.7474483,25.1612493 72.9619952,25.1029516 73.1706768,25.0271157 C72.9826408,25.5316588 72.7582107,26.2701264 72.4973866,27.2425185 C71.9726864,27.3313493 71.4417347,27.3773661 70.9096959,27.3801212 C70.2238556,27.4009055 69.5406504,27.28558 68.898924,27.0407012 C68.375943,26.8259563 67.9400131,26.4397577 67.661526,25.9444668 C67.3787246,25.4898528 67.2216563,24.9672552 67.2064614,24.4308374 C67.2046969,24.117902 67.25863,23.8071723 67.3658243,23.5134863 C67.483659,23.1984753 67.652786,22.9054889 67.8662426,22.6465895 C68.0937135,22.3641105 68.3639181,22.119541 68.6669119,21.9218822 C69.0591869,21.6823952 69.4794104,21.4928914 69.9179578,21.3577114 C70.4123012,21.200769 70.9136619,21.0676039 71.4203408,20.9586383 L71.9287295,20.857755 C72.1531595,20.8149453 72.3627623,20.7694175 72.5575379,20.7211716 L72.838581,20.6467642 C73.0449818,20.5967583 73.247262,20.5308203 73.4436322,20.4495337 C73.5514882,20.4016684 73.6500665,20.3348902 73.7347846,20.2523032 C73.8029083,20.1859061 73.8570609,20.1063474 73.8940086,20.0183788 C73.9271934,19.9352811 73.9441838,19.8465141 73.9440505,19.7569336 C73.9502169,19.5225831 73.8301169,19.3032172 73.6301517,19.1835893 C73.3512289,19.0327384 73.0362624,18.9628746 72.7203003,18.981772 C71.3024525,19.0630394 69.9100955,19.3969158 68.6077716,19.9679245 L68.7858323,18.9871471 C68.8022286,18.8876718 68.8156868,18.8007146 68.826207,18.7262754 L68.9944584,17.4681426 L68.9944584,17.4681426 C70.5772496,17.0908668 72.1951564,16.88331 73.8212205,16.8489308 Z M93.0099883,13.729937 C92.8674448,14.7512545 92.7628119,15.8750096 92.6960895,17.1012023 L93.4808364,16.9785065 C93.7082993,16.9456348 93.9016427,16.9207899 94.0608668,16.9039718 C94.3752265,16.8709507 94.6910516,16.8541106 95.0071122,16.8535174 C95.8847098,16.8247481 96.7586025,16.9809707 97.5728935,17.312193 C98.3044733,17.6490731 98.9112964,18.211117 99.3061606,18.9175574 C99.7721229,19.7569312 100.003261,20.7081297 99.9749013,21.6696106 C99.9864122,22.7058124 99.7704729,23.7317554 99.3425545,24.6739354 C98.9888451,25.5068545 98.3983906,26.2154944 97.6456816,26.7104549 C96.5935732,27.3229063 95.353719,27.5206303 94.1654997,27.2654523 C93.6040346,27.1405918 93.0819985,26.8774222 92.6460477,26.4994642 C92.4305032,26.3007707 92.2283692,26.0877765 92.0409965,25.8619052 L92.0000531,27.1186762 L90.2576876,27.1186762 L88.3469995,27.1507834 L88.4525422,25.8714456 C88.5544455,24.5511939 88.6454307,23.1082006 88.7254976,21.5424658 L88.8476199,18.8735654 C88.9404922,16.6502868 88.9934995,14.935744 89.0066418,13.729937 L93.0099883,13.729937 Z M126.374242,16.8168234 C127.538725,16.841608 128.699411,16.9597068 129.845326,17.1700036 L130,19.9220568 C129.277348,19.6256228 128.505516,19.4699839 127.725372,19.4633814 C127.345826,19.4415495 126.965698,19.4945206 126.606254,19.619331 C126.401218,19.6894914 126.262557,19.8826428 126.260511,20.1009403 C126.260862,20.1717566 126.274764,20.2418392 126.301454,20.3073443 C126.33516,20.3844812 126.383007,20.4545089 126.442481,20.5137483 C126.52111,20.5942275 126.606331,20.6678767 126.697239,20.7339126 L127.861485,21.5681516 C127.989835,21.6625777 128.104112,21.7491756 128.204317,21.8279455 L128.344071,21.9402293 C128.652889,22.174313 128.933781,22.443668 129.181134,22.7429115 C129.373909,22.9794795 129.527528,23.2458827 129.636059,23.5318333 C129.737209,23.8141651 129.788035,24.1123097 129.786185,24.4124905 C129.790452,24.8633077 129.674162,25.3069555 129.449541,25.696782 C129.203263,26.1073615 128.853142,26.4445388 128.435056,26.6737609 C127.978977,26.9372813 127.482279,27.1217837 126.965646,27.2195848 C126.427209,27.3218973 125.880375,27.3725778 125.332462,27.371057 C124.856429,27.3652314 124.381069,27.3330754 123.908545,27.2746258 C123.295911,27.2318161 122.612006,27.1278496 121.85683,26.9627264 L121.865928,26.9581397 L121.813359,26.3588036 L121.813359,26.3588036 L121.788591,26.0407886 C121.76918,25.7814841 121.738124,25.4497699 121.695422,25.0456461 L121.583874,24.0226162 C122.117546,24.2382635 122.662797,24.4235538 123.217057,24.5776136 C123.627562,24.6930135 124.051087,24.7546765 124.477202,24.7610838 C124.739266,24.7686278 125.001094,24.7392961 125.255125,24.6739354 C125.429375,24.6375704 125.588247,24.5478688 125.71005,24.4170772 C125.794606,24.3223803 125.842984,24.2004389 125.846528,24.0730705 C125.844325,23.9607235 125.807784,23.8517998 125.741895,23.7611711 C125.654946,23.6538615 125.557831,23.5555803 125.452021,23.4676777 L124.677005,22.8880364 C124.483874,22.7419941 124.300933,22.6018228 124.128183,22.4675226 L123.8767,22.2704757 C123.545185,22.0166159 123.240312,21.7292104 122.966848,21.4127524 C122.771673,21.1710859 122.617914,20.8982404 122.511923,20.6054835 C122.402945,20.3122844 122.348954,20.0012204 122.352699,19.6881324 C122.350202,19.14613 122.508641,18.6157764 122.807624,18.1653295 C123.136126,17.6789314 123.616531,17.3172727 124.172402,17.1378963 C124.883477,16.9079222 125.627678,16.7994026 126.374242,16.8168234 Z M54.7097903,13.7528708 L58.7131368,13.7528708 L58.4770641,16.5606475 C58.4455827,17.0088606 58.4044765,17.6721838 58.3537454,18.5506169 C58.5168536,18.3334683 58.693093,18.1266715 58.8814592,17.931405 C59.0220628,17.7930444 59.1742718,17.6672042 59.336385,17.555291 C59.4957849,17.4426063 59.6647672,17.3443719 59.8413526,17.2617387 C60.0338342,17.1760112 60.2332049,17.1069605 60.4373053,17.0553347 C60.6811082,16.9926004 60.9288542,16.9466271 61.1788342,16.917732 C61.4550792,16.8840407 61.7330895,16.867192 62.0113483,16.8672777 C62.5506228,16.8659465 63.0881527,16.9290726 63.6126869,17.0553347 C64.0980014,17.164861 64.5503266,17.3897426 64.9319716,17.7112408 C65.2690803,17.985161 65.5255,18.3467904 65.6735005,18.757021 C65.8075083,19.1668164 65.8736002,19.5960813 65.8691186,20.0275522 L65.8691186,20.7339126 C65.8691186,21.0274649 65.8478888,21.3974631 65.8054291,21.8439074 L65.5916139,25.1738918 C65.5697774,25.5065845 65.5557051,25.7932872 65.5493968,26.0340002 L65.5461213,26.2059118 C65.5430885,26.4780593 65.5430885,26.822066 65.5461213,27.2379317 L61.492733,27.2379317 C61.5837182,26.5065991 61.6662787,25.6828943 61.7404148,24.7668173 L61.7838854,24.2060864 C61.868805,23.0624555 61.9112647,22.2108478 61.9112647,21.6512636 C61.9589634,21.1825145 61.8198494,20.7138785 61.5245778,20.3486251 C61.2487945,20.09034 60.8815395,19.9547902 60.5055442,19.9725111 C60.1558936,19.9658766 59.8101899,20.0478891 59.5001582,20.2110225 C59.2235388,20.3648984 58.9890797,20.5855307 58.8177697,20.8531682 C58.6159544,21.1779735 58.4741552,21.5369473 58.399238,21.9127088 C58.2775377,22.5264223 58.1906531,23.1464626 58.1389498,23.769808 L58.0635028,25.0357846 C58.0359039,25.605796 58.0083051,26.341374 57.9807063,27.2425185 L55.5330053,27.2403618 C55.1920004,27.2382051 54.8104866,27.2344309 54.3884641,27.2290391 L54.0285874,27.2232679 L54.144104,26.0765465 C54.1889157,25.6010217 54.2243194,25.1824101 54.2503152,24.8207116 L54.4244665,22.0872921 C54.4600076,21.4904405 54.4959751,20.8634884 54.5323692,20.2064357 L54.6085692,18.502456 C54.6305573,17.9459297 54.6491334,17.4008703 54.6642976,16.8672777 C54.694626,15.8000926 54.7097903,14.761957 54.7097903,13.7528708 Z M86.4590576,16.8855264 C86.7226031,16.8885959 86.9850172,16.9208989 87.2415299,16.9819466 L87.2470901,17.6531418 C87.2545037,18.0730847 87.2693309,18.4379866 87.2915717,18.7478474 L87.3598106,20.2614768 C87.0321134,20.1618715 86.6921188,20.1093711 86.3498754,20.1055271 C86.0041036,20.0967801 85.6598335,20.1543721 85.335391,20.275237 C85.0491591,20.3903549 84.7913977,20.5672652 84.5802143,20.7935404 C84.3503843,21.0445538 84.1725257,21.3392697 84.0570497,21.6604372 C83.9260271,22.0889456 83.8410687,22.530077 83.8034306,22.9762308 L83.7840942,23.3116691 C83.732536,24.063897 83.7067569,24.9246782 83.7067569,25.8940125 L83.7133078,26.3409459 C83.7198587,26.5842274 83.7313228,26.8572311 83.7477001,27.1599569 L81.8370121,27.1599569 C81.1970833,27.1599569 80.5146946,27.1568991 79.7898463,27.1507834 L80.0946465,22.7933658 L80.1947301,20.2889973 L80.1947301,17.1378963 L83.9433182,17.1378963 L83.902375,18.2478911 C84.0979179,18.0206315 84.3076075,17.8061494 84.5301725,17.6057453 C84.7029716,17.4594614 84.890518,17.3318625 85.0897312,17.2250446 C85.2960066,17.1108912 85.5162526,17.0245341 85.7448242,16.9681863 C85.9788085,16.9121841 86.2185736,16.8844684 86.4590576,16.8855264 Z M50.3015597,13.8262588 C50.7088705,13.9321802 51.0940618,14.1108287 51.4388741,14.3537357 C51.7649404,14.5814068 52.0483542,14.8656037 52.2759375,15.193112 C52.5022044,15.5272348 52.6699278,15.8980267 52.7718066,16.2893466 C52.8817117,16.6990379 52.9367907,17.1217067 52.9355798,17.5461176 C52.9448779,18.3931623 52.7263521,19.2269178 52.3032331,19.9587509 C51.8915171,20.6766484 51.2682004,21.2473875 50.5199241,21.5916358 C49.7086852,21.9618443 48.8263078,22.1466661 47.9359459,22.132873 C47.5269802,22.1270693 47.1191907,22.0871815 46.7167449,22.0136173 L46.6614111,21.7163207 C46.6060154,21.4392432 46.5274092,21.0888401 46.4255925,20.6651112 L46.2565272,19.9849609 C46.1877003,19.7193659 46.1272911,19.5026964 46.0752996,19.3349521 C46.2749872,19.3751751 46.4770515,19.4015615 46.6800746,19.4139756 L46.9851511,19.4221005 C47.5157847,19.4705935 48.0439298,19.3057333 48.4545612,18.963425 C48.7700344,18.6603076 48.9449616,18.2376872 48.9367826,17.798389 C48.9399109,17.594301 48.9027985,17.3916194 48.8276004,17.2021109 C48.7567808,17.0298825 48.6383456,16.8818123 48.4864061,16.7755426 C48.3319479,16.6650292 48.1546187,16.5913172 47.9677908,16.5599651 C47.7542695,16.5246945 47.5381576,16.5078154 47.3217962,16.5095108 L46.5893658,16.5095108 L45.7704993,16.5691387 C45.7138864,17.4131016 45.666035,18.3195804 45.6269451,19.288575 L45.5506793,21.6017725 C45.4818945,23.9385409 45.4475021,25.3601141 45.4475021,25.866492 L45.4475021,27.1507834 L41.4623527,27.1507834 L41.6579708,24.6326547 L41.9127291,19.7110661 L42.0219113,16.225132 L42.0219113,13.7253503 L43.6034746,13.7506242 L43.6034746,13.7506242 L44.0918234,13.7528708 C44.3899081,13.7528708 44.7414698,13.7478784 45.1465084,13.7378937 L46.1480878,13.7070033 C46.7283708,13.6866176 47.250019,13.6730272 47.7130324,13.666232 L48.3635762,13.6611357 C49.01377,13.6388794 49.6642911,13.6943061 50.3015597,13.8262588 Z M119.968888,16.8580059 C120.232433,16.8610754 120.494847,16.8933783 120.75136,16.9544261 L120.75692,17.6256213 C120.764334,18.0455642 120.779161,18.4104661 120.801402,18.7203269 L120.869641,20.2339562 C120.541943,20.134351 120.201949,20.0818505 119.859705,20.0780066 C119.513934,20.0692596 119.169664,20.1268516 118.845221,20.2477164 C118.558989,20.3628344 118.301228,20.5397447 118.090044,20.7660199 C117.860214,21.0170332 117.682356,21.3117492 117.56688,21.6329167 C117.435857,22.0614251 117.350899,22.5025565 117.313261,22.9487103 L117.293924,23.2841485 C117.252678,23.8859309 117.22793,24.5571873 117.21968,25.2979177 L117.216587,25.866492 C117.216587,26.2059118 117.230235,26.6278933 117.25753,27.1324364 L115.346842,27.1324364 C114.706913,27.1324364 114.021492,27.138552 113.290578,27.1507834 L113.299676,27.1232628 L113.604477,22.7658452 L113.70456,20.2614768 L113.70456,17.1103757 L117.453148,17.1103757 L117.412205,18.2203705 C117.607748,17.993111 117.817438,17.7786289 118.040003,17.5782248 C118.212802,17.4319408 118.400348,17.3043419 118.599561,17.1975241 C118.805837,17.0833707 119.026083,16.9970135 119.254654,16.9406658 C119.488639,16.8846635 119.728404,16.8569479 119.968888,16.8580059 Z M93.9562339,19.6973058 C93.4399332,19.706423 92.9266483,19.7788136 92.4276833,19.9128833 L92.441331,19.9128833 L92.3694932,21.6245178 L92.3694932,21.6245178 L92.3639937,21.908122 C92.3502249,22.4011787 92.4053569,22.8937351 92.5277669,23.3712969 C92.6288157,23.723484 92.8473596,24.0296992 93.146466,24.2381937 C93.4448895,24.4532097 93.8032732,24.5672317 94.1700489,24.5638533 C94.5387523,24.5708229 94.8996721,24.4565019 95.1981811,24.2381937 C95.5114587,23.9964465 95.7459227,23.6658106 95.8714712,23.2887353 C96.0262007,22.8690293 96.1047895,22.4246833 96.1034833,21.9769232 C96.1324926,21.3741248 95.9342152,20.7825826 95.5484739,20.3211046 C95.1349863,19.8865286 94.5522633,19.6582326 93.9562339,19.6973058 Z M106.90342,19.1423084 C106.708714,19.1417707 106.515185,19.172743 106.330214,19.2340435 C106.148672,19.2932887 105.979171,19.3849524 105.829796,19.5046621 C105.683864,19.6207362 105.557839,19.7601964 105.456757,19.9174701 C105.364223,20.0599824 105.290797,20.2142127 105.238392,20.3761457 C105.178978,20.5748196 105.131878,20.7770272 105.097365,20.9815973 L105.111013,20.9724238 L108.37738,20.9724238 L108.37738,20.6926317 C108.385699,20.3946857 108.323311,20.0990459 108.19541,19.8303217 C108.083961,19.601916 107.899748,19.4178001 107.672245,19.3074316 C107.431689,19.1943691 107.168794,19.1379062 106.90342,19.1423084 Z" id="Shape"></path>
            </g>
        </g>
    </g>
</svg>